<svg id="card-svg" xmlns="http://www.w3.org/2000/svg" width="340" height="480" viewBox="0 0 340 480" data-fg-d3bl6="0.8:0.125:/src/app/App.tsx:89:7:2333:1716:e:svg:xtetxtetxtetxtetxtetxtetxtetetetetxtetetxtete" data-fgid-d3bl6=":r1:"><path d="&#10;    M 28,0&#10;    H 312&#10;    Q 340,0 340,28&#10;    V 452&#10;    Q 340,480 312,480&#10;    H 28&#10;    Q 0,480 0,452&#10;    V 28&#10;    Q 0,0 28,0&#10;    Z&#10;  " fill="#F5EAD8" data-fg-d3bl8="0.8:0.125:/src/app/App.tsx:97:9:2514:35:e:path"/><path d="&#10;    M 28,0&#10;    H 312&#10;    Q 340,0 340,28&#10;    V 452&#10;    Q 340,480 312,480&#10;    H 28&#10;    Q 0,480 0,452&#10;    V 28&#10;    Q 0,0 28,0&#10;    Z&#10;  " fill="none" stroke="#B5632A" stroke-width="1" opacity="0.5" data-fg-d3bl10="0.8:0.125:/src/app/App.tsx:100:9:2598:80:e:path"/><rect x="18" y="18" width="304" height="444" rx="10" ry="10" fill="none" stroke="#B5632A" stroke-width="1.2" data-fg-d3bl12="0.8:0.125:/src/app/App.tsx:103:9:2727:213:e:rect"/><rect x="21.5" y="21.5" width="297" height="437" rx="8" ry="8" fill="none" stroke="#B5632A" stroke-width="0.5" opacity="0.5" data-fg-d3bl14="0.8:0.125:/src/app/App.tsx:116:9:3014:265:e:rect"/><g data-fg-d3bl1="0.8:0.125:/src/app/App.tsx:51:12:1268:14:e:g:x"><line x1="170" y1="17" x2="192" y2="17" stroke="#B5632A" stroke-width="0.6" opacity="0.85" data-fg-d3bl0="0.8:0.125:/src/app/App.tsx:39:9:1023:218:e:line"/><line x1="170" y1="17" x2="191.44841406800012" y2="21.895460547038915" stroke="#B5632A" stroke-width="0.6" opacity="0.85" data-fg-d3bl0="0.8:0.125:/src/app/App.tsx:39:9:1023:218:e:line"/><line x1="170" y1="17" x2="189.82131509385323" y2="26.545442260586277" stroke="#B5632A" stroke-width="0.6" opacity="0.85" data-fg-d3bl0="0.8:0.125:/src/app/App.tsx:39:9:1023:218:e:line"/><line x1="170" y1="17" x2="187.20029261429664" y2="30.716775640892138" stroke="#B5632A" stroke-width="0.6" opacity="0.85" data-fg-d3bl0="0.8:0.125:/src/app/App.tsx:39:9:1023:218:e:line"/><line x1="170" y1="17" x2="183.71677564089214" y2="34.20029261429666" stroke="#B5632A" stroke-width="0.6" opacity="0.85" data-fg-d3bl0="0.8:0.125:/src/app/App.tsx:39:9:1023:218:e:line"/><line x1="170" y1="17" x2="179.54544226058627" y2="36.82131509385322" stroke="#B5632A" stroke-width="0.6" opacity="0.85" data-fg-d3bl0="0.8:0.125:/src/app/App.tsx:39:9:1023:218:e:line"/><line x1="170" y1="17" x2="174.8954605470389" y2="38.44841406800012" stroke="#B5632A" stroke-width="0.6" opacity="0.85" data-fg-d3bl0="0.8:0.125:/src/app/App.tsx:39:9:1023:218:e:line"/><line x1="170" y1="17" x2="170" y2="39" stroke="#B5632A" stroke-width="1" opacity="0.85" data-fg-d3bl0="0.8:0.125:/src/app/App.tsx:39:9:1023:218:e:line"/><line x1="170" y1="17" x2="165.1045394529611" y2="38.44841406800012" stroke="#B5632A" stroke-width="0.6" opacity="0.85" data-fg-d3bl0="0.8:0.125:/src/app/App.tsx:39:9:1023:218:e:line"/><line x1="170" y1="17" x2="160.4545577394137" y2="36.821315093853215" stroke="#B5632A" stroke-width="0.6" opacity="0.85" data-fg-d3bl0="0.8:0.125:/src/app/App.tsx:39:9:1023:218:e:line"/><line x1="170" y1="17" x2="156.28322435910786" y2="34.20029261429665" stroke="#B5632A" stroke-width="0.6" opacity="0.85" data-fg-d3bl0="0.8:0.125:/src/app/App.tsx:39:9:1023:218:e:line"/><line x1="170" y1="17" x2="152.79970738570336" y2="30.716775640892138" stroke="#B5632A" stroke-width="0.6" opacity="0.85" data-fg-d3bl0="0.8:0.125:/src/app/App.tsx:39:9:1023:218:e:line"/><line x1="170" y1="17" x2="150.17868490614677" y2="26.54544226058628" stroke="#B5632A" stroke-width="0.6" opacity="0.85" data-fg-d3bl0="0.8:0.125:/src/app/App.tsx:39:9:1023:218:e:line"/><line x1="170" y1="17" x2="148.55158593199988" y2="21.89546054703892" stroke="#B5632A" stroke-width="0.6" opacity="0.85" data-fg-d3bl0="0.8:0.125:/src/app/App.tsx:39:9:1023:218:e:line"/><line x1="170" y1="17" x2="148" y2="17.000000000000004" stroke="#B5632A" stroke-width="0.6" opacity="0.85" data-fg-d3bl0="0.8:0.125:/src/app/App.tsx:39:9:1023:218:e:line"/></g><g data-fg-d3bl1="0.8:0.125:/src/app/App.tsx:51:12:1268:14:e:g:x"><line x1="170" y1="463" x2="148" y2="463" stroke="#B5632A" stroke-width="0.6" opacity="0.85" data-fg-d3bl0="0.8:0.125:/src/app/App.tsx:39:9:1023:218:e:line"/><line x1="170" y1="463" x2="148.55158593199988" y2="458.1045394529611" stroke="#B5632A" stroke-width="0.6" opacity="0.85" data-fg-d3bl0="0.8:0.125:/src/app/App.tsx:39:9:1023:218:e:line"/><line x1="170" y1="463" x2="150.17868490614677" y2="453.4545577394137" stroke="#B5632A" stroke-width="0.6" opacity="0.85" data-fg-d3bl0="0.8:0.125:/src/app/App.tsx:39:9:1023:218:e:line"/><line x1="170" y1="463" x2="152.79970738570336" y2="449.28322435910786" stroke="#B5632A" stroke-width="0.6" opacity="0.85" data-fg-d3bl0="0.8:0.125:/src/app/App.tsx:39:9:1023:218:e:line"/><line x1="170" y1="463" x2="156.28322435910786" y2="445.79970738570336" stroke="#B5632A" stroke-width="0.6" opacity="0.85" data-fg-d3bl0="0.8:0.125:/src/app/App.tsx:39:9:1023:218:e:line"/><line x1="170" y1="463" x2="160.45455773941373" y2="443.17868490614677" stroke="#B5632A" stroke-width="0.6" opacity="0.85" data-fg-d3bl0="0.8:0.125:/src/app/App.tsx:39:9:1023:218:e:line"/><line x1="170" y1="463" x2="165.10453945296106" y2="441.5515859319999" stroke="#B5632A" stroke-width="0.6" opacity="0.85" data-fg-d3bl0="0.8:0.125:/src/app/App.tsx:39:9:1023:218:e:line"/><line x1="170" y1="463" x2="170" y2="441" stroke="#B5632A" stroke-width="1" opacity="0.85" data-fg-d3bl0="0.8:0.125:/src/app/App.tsx:39:9:1023:218:e:line"/><line x1="170" y1="463" x2="174.8954605470389" y2="441.55158593199985" stroke="#B5632A" stroke-width="0.6" opacity="0.85" data-fg-d3bl0="0.8:0.125:/src/app/App.tsx:39:9:1023:218:e:line"/><line x1="170" y1="463" x2="179.54544226058627" y2="443.17868490614677" stroke="#B5632A" stroke-width="0.6" opacity="0.85" data-fg-d3bl0="0.8:0.125:/src/app/App.tsx:39:9:1023:218:e:line"/><line x1="170" y1="463" x2="183.71677564089214" y2="445.79970738570336" stroke="#B5632A" stroke-width="0.6" opacity="0.85" data-fg-d3bl0="0.8:0.125:/src/app/App.tsx:39:9:1023:218:e:line"/><line x1="170" y1="463" x2="187.20029261429664" y2="449.28322435910786" stroke="#B5632A" stroke-width="0.6" opacity="0.85" data-fg-d3bl0="0.8:0.125:/src/app/App.tsx:39:9:1023:218:e:line"/><line x1="170" y1="463" x2="189.82131509385323" y2="453.4545577394137" stroke="#B5632A" stroke-width="0.6" opacity="0.85" data-fg-d3bl0="0.8:0.125:/src/app/App.tsx:39:9:1023:218:e:line"/><line x1="170" y1="463" x2="191.44841406800012" y2="458.10453945296103" stroke="#B5632A" stroke-width="0.6" opacity="0.85" data-fg-d3bl0="0.8:0.125:/src/app/App.tsx:39:9:1023:218:e:line"/><line x1="170" y1="463" x2="192" y2="463" stroke="#B5632A" stroke-width="0.6" opacity="0.85" data-fg-d3bl0="0.8:0.125:/src/app/App.tsx:39:9:1023:218:e:line"/></g><polygon points="18,14 22,18 18,22 14,18" fill="#B5632A" opacity="0.9" data-fg-d3bl3="0.8:0.125:/src/app/App.tsx:56:5:1405:148:e:polygon::1"/><polygon points="322,14 326,18 322,22 318,18" fill="#B5632A" opacity="0.9" data-fg-d3bl3="0.8:0.125:/src/app/App.tsx:56:5:1405:148:e:polygon::1"/><polygon points="18,458 22,462 18,466 14,462" fill="#B5632A" opacity="0.9" data-fg-d3bl3="0.8:0.125:/src/app/App.tsx:56:5:1405:148:e:polygon::1"/><polygon points="322,458 326,462 322,466 318,462" fill="#B5632A" opacity="0.9" data-fg-d3bl3="0.8:0.125:/src/app/App.tsx:56:5:1405:148:e:polygon::1"/><circle cx="18" cy="240" r="2" fill="#B5632A" opacity="0.9" data-fg-d3bl4="0.8:0.125:/src/app/App.tsx:65:5:1639:60:e:circle::1"/><circle cx="322" cy="240" r="2" fill="#B5632A" opacity="0.9" data-fg-d3bl4="0.8:0.125:/src/app/App.tsx:65:5:1639:60:e:circle::1"/><circle cx="170" cy="18" r="2" fill="#B5632A" opacity="0.9" data-fg-d3bl4="0.8:0.125:/src/app/App.tsx:65:5:1639:60:e:circle::1"/><circle cx="170" cy="462" r="2" fill="#B5632A" opacity="0.9" data-fg-d3bl4="0.8:0.125:/src/app/App.tsx:65:5:1639:60:e:circle::1"/></svg>